<svg width="72" height="61" viewBox="0 0 72 61" fill="none" xmlns="http://www.w3.org/2000/svg">
<path d="M10.5 18.3056C11.3292 18.3056 12.0001 17.6347 12.0001 16.8056V7.80557C12.0001 6.97645 11.3292 6.30553 10.5 6.30553C9.67092 6.30553 9 6.97645 9 7.80557V16.8056C9 17.6347 9.67092 18.3056 10.5 18.3056Z" fill="#7EA1F1"/>
<path d="M16.5 18.3056C17.3291 18.3056 18 17.6347 18 16.8056V7.80557C18 6.97645 17.3291 6.30553 16.5 6.30553C15.6708 6.30553 14.9999 6.97645 14.9999 7.80557V16.8056C15 17.6347 15.671 18.3056 16.5 18.3056Z" fill="#7EA1F1"/>
<path d="M22.5 18.3056C23.3291 18.3056 24 17.6347 24 16.8056V7.80557C24 6.97645 23.3291 6.30553 22.5 6.30553C21.6709 6.30553 21 6.97645 21 7.80557V16.8056C21 17.6347 21.6709 18.3056 22.5 18.3056Z" fill="#7EA1F1"/>
<path d="M54 15.3055C55.6568 15.3055 57 13.9624 57 12.3056C57 10.6487 55.6568 9.30562 54 9.30562C52.3432 9.30562 51 10.6487 51 12.3056C51 13.9624 52.3432 15.3055 54 15.3055Z" fill="#7EA1F1"/>
<path d="M45 15.3055C46.6568 15.3055 48 13.9624 48 12.3056C48 10.6487 46.6568 9.30562 45 9.30562C43.3432 9.30562 42 10.6487 42 12.3056C42 13.9624 43.3432 15.3055 45 15.3055Z" fill="#7EA1F1"/>
<path d="M10.5 27.3056C9.67092 27.3056 9 27.9765 9 28.8057V37.8057C9 38.6347 9.67092 39.3056 10.5 39.3056C11.3292 39.3056 12.0001 38.6347 12.0001 37.8055V28.8055C12 27.9765 11.3292 27.3056 10.5 27.3056Z" fill="#7EA1F1"/>
<path d="M16.5 27.3056C15.6708 27.3056 14.9999 27.9765 14.9999 28.8057V37.8057C14.9999 38.6348 15.6708 39.3057 16.5 39.3057C17.3291 39.3057 18 38.6348 18 37.8057V28.8057C18 27.9765 17.3291 27.3056 16.5 27.3056Z" fill="#7EA1F1"/>
<path d="M22.5 27.3056C21.6709 27.3056 21 27.9765 21 28.8057V37.8057C21 38.6348 21.6709 39.3057 22.5 39.3057C23.3291 39.3057 24 38.6348 24 37.8057V28.8057C24 27.9765 23.3291 27.3056 22.5 27.3056Z" fill="#7EA1F1"/>
<path d="M66 31.0876V27.3055C66 25.5048 65.1866 23.906 63.927 22.8055C65.1866 21.7049 66 20.1062 66 18.3055V6.30553C66 2.99648 63.3091 0.305481 59.9999 0.305481H5.99991C2.69086 0.305622 0 2.99648 0 6.30553V18.3055C0 20.1062 0.813375 21.7049 2.07295 22.8055C0.813375 23.906 0 25.5049 0 27.3056V39.3056C0 42.6146 2.69086 45.3056 6.00005 45.3056H39.076C39.8374 53.7025 46.9081 60.3057 55.5 60.3057C64.5982 60.3055 72 52.9037 72 43.8056C72 38.6929 69.6623 34.1165 66 31.0876ZM2.99995 6.30553C2.99995 4.65178 4.34616 3.30557 6.00005 3.30557H60C61.6538 3.30557 63 4.65178 63 6.30553V18.3055C63 19.9592 61.6538 21.3054 60 21.3054H6.00005C4.3463 21.3054 3.00009 19.9592 3.00009 18.3055V6.30553H2.99995ZM6.00005 42.3055C4.3463 42.3055 3.00009 40.9593 3.00009 39.3056V27.3056C3.00009 25.6519 4.3463 24.3057 6.00005 24.3057H60C61.6538 24.3057 63 25.6519 63 27.3056V29.1271C60.7468 27.9712 58.2017 27.3056 55.5 27.3056C46.9081 27.3056 39.8374 33.9088 39.076 42.3057H6.00005V42.3055ZM55.5 57.3056C48.0556 57.3056 42 51.2498 42 43.8056C42 36.3613 48.0558 30.3056 55.5 30.3056C62.9443 30.3056 69 36.3613 69 43.8056C69 51.2498 62.9443 57.3056 55.5 57.3056Z" fill="#7EA1F1"/>
<path d="M51.832 42.0537C52.5219 41.5937 52.7079 40.6636 52.248 39.9735C51.788 39.2821 50.8563 39.0976 50.1678 39.5576L48.7748 40.4863C50.0023 38.0107 52.5555 36.3056 55.4999 36.3056C57.996 36.3056 60.3207 37.542 61.7212 39.6133C62.1825 40.2988 63.1187 40.4819 63.8027 40.0162C64.4896 39.5532 64.6699 38.6202 64.2056 37.9346C62.2485 35.0356 58.9936 33.3057 55.5 33.3057C49.7109 33.3055 45 38.0165 45 43.8056C45 44.3594 45.3047 44.8676 45.7924 45.1283C46.0136 45.247 46.2568 45.3055 46.4999 45.3055C46.7914 45.3055 47.0814 45.2205 47.332 45.0535L51.832 42.0537Z" fill="#7EA1F1"/>
<path d="M65.2075 42.4828C64.7197 42.2221 64.125 42.2514 63.668 42.5575L59.168 45.5575C58.4781 46.0175 58.292 46.9476 58.752 47.6376C59.209 48.3261 60.1393 48.5092 60.8321 48.0536L62.2252 47.1249C60.9976 49.6004 58.4445 51.3055 55.5 51.3055C53.004 51.3055 50.6793 50.0692 49.2788 47.9979C48.8159 47.3109 47.8799 47.1306 47.1973 47.595C46.5103 48.0579 46.33 48.991 46.7944 49.6765C48.7515 52.5755 52.0064 54.3055 55.4999 54.3055C61.289 54.3055 66 49.5945 66 43.8054C66 43.2519 65.6954 42.7436 65.2075 42.4828Z" fill="#7EA1F1"/>
</svg>
